<svg version="1.2" xmlns="http://www.w3.org/2000/svg" viewBox="0 0 543 543" width="543" height="543">
	<title>icon</title>
	<style>
		.s0 { fill: #1af073 } 
	</style>
	<path class="s0" d="m301 2.5c3.6 0.9 5.5 2.9 8 5.5 1.5 3 1.1 5.9 1.1 9.2 0 1.1 0 1.1 0 2.3q0 3.7 0 7.5 0 2.7 0 5.4 0 7.4 0 14.8 0 7.6 0 15.3 0 14.6 0 29.1 0 16.6 0 33.2-0.1 34.1-0.1 68.2 1.9 0 3.9 0 18-0.1 36-0.2 9.3 0 18.6 0 8.9-0.1 17.9-0.1 3.4 0 6.8 0 4.8 0 9.6 0 1.4-0.1 2.8-0.1c5.6 0.1 9.5 0.7 14.4 3.4 2.4 2.8 3 4.5 3.3 8.2-0.4 4.7-1.9 7.5-4.3 11.4-0.6 1.1-0.6 1.1-1.2 2.1q-1.9 3.2-3.8 6.3-1 1.6-2 3.3-2 3.2-3.9 6.3-3.4 5.6-6.7 11.1-6.4 11-12.9 21.8c-4.2 7-8.4 14-12.5 21-4.8 8.1-9.6 16.2-14.5 24.3q-6.1 10.1-12.1 20.4c-4.1 7-8.2 13.9-12.4 20.8q-10.6 17.6-21 35.3-7.2 12-14.4 24.1-6.3 10.5-12.6 21.1-7.7 13-15.4 25.9-7.4 12.3-14.7 24.7-5.7 9.6-11.4 19.1-3.5 5.9-7 11.7-2.3 3.9-4.6 7.8-1.2 2-2.3 4-1.7 2.9-3.5 5.9-0.5 0.9-1 1.8c-2.2 3.7-4.5 6.2-8.1 8.6-3.9 0.9-7.2 0.3-10.9-1.3-2.1-1.7-2.1-1.7-4.1-4.7-0.8-9.8 0.3-19.8 1.3-29.6q0.2-2 0.4-4.1 0.6-5.6 1.1-11.2 0.6-6 1.2-12 1.1-10.1 2.1-20.2 1.4-13.9 2.8-27.8 5.9-58.6 12.1-117.1-1.9 0-3.8 0-17.7 0.2-35.4 0.3-9.1 0-18.2 0.1-8.8 0.1-17.6 0.1-3.3 0-6.7 0-4.7 0.1-9.3 0.1-1.4 0-2.8 0c-4.4 0-7.3-0.2-10.8-3-2.7-2.9-3.3-3.7-3.8-7.6 0.5-5.3 2.6-8.8 5.3-13.4q0.7-1.3 1.5-2.6 2.3-4 4.6-8c0.7-1.1 0.7-1.1 1.3-2.3q3.1-5.2 6.2-10.5 3.9-6.6 7.8-13.3 8.9-15.4 17.9-30.8 4.4-7.6 8.8-15.1 1.7-3 3.5-6 0.9-1.5 1.8-3c5.2-9 5.2-9 6.9-12q1.8-3 3.6-6 4.3-7.5 8.7-14.9 9.2-15.8 18.3-31.5 6.6-11.7 13.4-23.2 5.3-9 10.6-18 0.8-1.5 1.7-3 1.9-3.2 3.7-6.3 3.5-6.1 7.1-12.1 1.7-3 3.5-6 4.3-7.5 8.7-14.9 0.8-1.5 1.7-3 1.7-3 3.5-5.9 4.2-7.2 8.3-14.5 2-3.6 4-7.2 1.4-2.5 2.9-5c8.2-14.6 8.2-14.6 17.1-14z"/>
</svg>